<?xml version="1.0" standalone="no"?>
<!DOCTYPE svg PUBLIC "-//W3C//DTD SVG 20010904//EN"
 "http://www.w3.org/TR/2001/REC-SVG-20010904/DTD/svg10.dtd">
<svg version="1.0" xmlns="http://www.w3.org/2000/svg"
 width="295.000000pt" height="295.000000pt" viewBox="0 0 295.000000 295.000000"
 preserveAspectRatio="xMidYMid meet">
<metadata>
Created by potrace 1.11, written by Peter Selinger 2001-2013
</metadata>
<g transform="translate(0.000000,295.000000) scale(0.100000,-0.100000)"
fill="#000000" stroke="none">
<path d="M1340 2875 c-455 -61 -809 -415 -886 -885 -9 -57 -12 -916 -3 -990
14 -111 21 -147 46 -220 151 -442 552 -725 1013 -714 117 2 159 9 267 40 326
94 593 353 697 674 48 147 49 155 53 650 3 388 1 492 -12 566 -20 123 -48 212
-101 317 -145 290 -424 499 -742 557 -93 17 -228 19 -332 5z m250 -29 c137
-13 204 -33 345 -102 267 -130 458 -371 531 -670 l27 -109 1 -450 c1 -247 -2
-484 -7 -525 -41 -377 -303 -704 -669 -836 -39 -15 -81 -27 -92 -29 -12 -1
-43 -8 -71 -15 -51 -11 -267 -17 -301 -7 -11 3 -37 8 -59 12 -69 10 -230 70
-308 114 -243 140 -427 390 -486 661 -21 99 -24 161 -25 565 -1 458 3 536 38
660 109 394 470 697 871 732 39 3 71 7 73 8 3 2 22 1 132 -9z"/>
<path d="M1480 1883 l0 -258 -80 1 -80 0 0 -383 0 -383 30 0 30 0 0 169 0 168
103 5 c111 5 164 22 210 66 79 75 85 203 14 281 -26 28 -113 71 -144 71 l-23
0 0 260 0 260 -30 0 -30 0 0 -257z m0 -393 l0 -118 30 2 30 1 0 112 c0 62 2
113 5 113 14 0 82 -40 96 -56 47 -54 61 -133 36 -199 -33 -85 -88 -117 -209
-123 l-88 -4 0 194 0 195 50 0 50 1 0 -118z"/>
</g>
</svg>
